SplineFontDB: 3.0
FontName: MyGaramond
FullName: MyGaramond
FamilyName: MyGaramond
Weight: Regular
Copyright: Created by trashman with FontForge 2.0 (http://fontforge.sf.net)
UComments: "2010-10-15: Created." 
Version: 001.000
ItalicAngle: 0
UnderlinePosition: -100
UnderlineWidth: 50
Ascent: 800
Descent: 200
LayerCount: 3
Layer: 0 0 "Back"  1
Layer: 1 0 "Fore"  0
Layer: 2 0 "backup"  0
NeedsXUIDChange: 1
XUID: [1021 658 797806517 11800223]
OS2Version: 0
OS2_WeightWidthSlopeOnly: 0
OS2_UseTypoMetrics: 1
CreationTime: 1287179752
ModificationTime: 1287195224
OS2TypoAscent: 0
OS2TypoAOffset: 1
OS2TypoDescent: 0
OS2TypoDOffset: 1
OS2TypoLinegap: 0
OS2WinAscent: 0
OS2WinAOffset: 1
OS2WinDescent: 0
OS2WinDOffset: 1
HheadAscent: 0
HheadAOffset: 1
HheadDescent: 0
HheadDOffset: 1
OS2Vendor: 'PfEd'
MarkAttachClasses: 1
DEI: 91125
Encoding: UnicodeBmp
UnicodeInterp: none
NameList: Adobe Glyph List
DisplaySize: -48
AntiAlias: 1
FitToEm: 1
WinInfo: 48 12 4
BeginChars: 65536 63

StartChar: a
Encoding: 97 97 0
Width: 370
VWidth: 0
Flags: HW
LayerCount: 3
Fore
SplineSet
218 189 m 1
 181 177 119 146 100 128 c 0
 95 123 92 115 92 106 c 0
 92 80 111 45 127 45 c 0
 169 45 214 98 214 98 c 1
 218 189 l 1
142 355 m 0
 106 355 94 341 94 307 c 0
 94 288 94 292 84 286 c 2
 52 267 l 2
 47 264 42 260 37 260 c 0
 28 260 21 274 21 291 c 0
 21 307 30 326 42 336 c 0
 78 364 164 410 193 410 c 0
 226 410 299 383 299 322 c 0
 299 275 289 88 289 84 c 0
 289 72 295 62 307 57 c 0
 317 53 321 53 329 61 c 0
 335 67 342 76 347 83 c 1
 367 68 l 1
 350 39 326 13 303 0 c 0
 297 -4 296 -5 281 -5 c 0
 251 -5 220 11 218 57 c 0
 218 66 208 67 202 60 c 0
 171 22 138 -6 90 -6 c 0
 43 -6 17 28 17 87 c 0
 17 154 149 189 218 208 c 1
 219 230 221 253 221 276 c 0
 221 297 219 315 208 326 c 0
 195 338 171 355 142 355 c 0
EndSplineSet
EndChar

StartChar: b
Encoding: 98 98 1
Width: 490
VWidth: 0
Flags: HW
LayerCount: 3
Fore
SplineSet
172 370 m 0
 194 384 230 405 270 405 c 0
 367 405 460 324 460 222 c 0
 460 174 453 132 434 101 c 0
 411 64 388 45 358 27 c 0
 321 4 286 -9 240 -9 c 0
 183 -9 159 3 140 11 c 0
 130 16 123 20 116 20 c 0
 112 20 107 19 102 15 c 0
 89 6 87 -12 87 -12 c 1
 62 -12 l 1
 62 -12 67 54 67 105 c 2
 69 580 l 2
 69 618 39 616 16 617 c 1
 16 639 l 1
 69 657 114 682 133 699 c 1
 137 698 144 696 147 694 c 1
 147 694 143 629 143 620 c 0
 143 519 143 427 141 392 c 0
 141 384 140 378 140 373 c 0
 140 360 142 355 146 355 c 0
 151 355 159 361 172 370 c 0
148 328 m 0
 145 317 143 298 143 275 c 2
 143 211 l 2
 143 180 145 147 148 118 c 0
 154 64 208 32 250 32 c 0
 335 32 381 112 381 187 c 0
 381 265 326 359 238 359 c 0
 190 359 149 334 148 328 c 0
EndSplineSet
EndChar

StartChar: c
Encoding: 99 99 2
Width: 422
VWidth: 0
Flags: HW
LayerCount: 3
Fore
SplineSet
30 178 m 0
 30 220 41 261 60 296 c 0
 78 329 103 355 134 376 c 0
 165 397 206 413 250 413 c 0
 294 413 382 394 382 338 c 0
 382 310 354 297 336 297 c 0
 322 297 312 305 309 318 c 0
 307 327 301 337 296 346 c 0
 283 367 250 382 232 382 c 0
 159 382 108 300 108 220 c 0
 108 131 179 48 264 48 c 0
 327 48 385 104 385 104 c 1
 400 84 l 1
 346 18 269 -14 211 -14 c 0
 109 -14 30 75 30 178 c 0
EndSplineSet
EndChar

StartChar: d
Encoding: 100 100 3
Width: 494
VWidth: 0
Flags: HW
HStem: -14 51<174.809 270.797> 374 29<178.68 280.044> 633 21<279 321.417>
VStem: 25 84<113.223 268.723> 337 73<39.2173 41.2894 66.6258 323.702 386.003 625.875>
LayerCount: 3
Fore
SplineSet
337 41 m 0
 337 43 337 60 327 51 c 0
 293 22 254 -14 201 -14 c 0
 94 -14 25 84 25 176 c 0
 25 270 82 338 141 376 c 0
 167 393 199 403 239 403 c 0
 282 403 306 395 315 392 c 0
 324 389 331 386 335 386 c 0
 340 386 340 390 340 396 c 0
 340 403 339 431 339 434 c 0
 339 551 338 536 338 591 c 0
 338 630 311 628 279 633 c 1
 279 653 l 1
 316 660 349 671 404 704 c 0
 405 705 407 705 408 705 c 0
 412 705 416 703 416 700 c 0
 416 477 410 321 410 85 c 0
 410 61 412 39 432 39 c 0
 440 39 467 45 467 45 c 1
 467 42 468 38 468 34 c 0
 468 30 467 27 467 24 c 1
 431 13 391 3 355 -11 c 0
 352 -13 344 -14 342 -14 c 0
 336 -14 332 -9 332 -4 c 0
 332 2 337 29 337 41 c 0
163 348 m 0
 124 314 109 272 109 208 c 0
 109 119 161 37 235 37 c 0
 277 37 335 79 335 79 c 1
 335 266 l 2
 335 290 327 308 316 323 c 0
 295 352 276 373 232 373 c 0
 196 373 177 361 163 348 c 0
EndSplineSet
EndChar

StartChar: e
Encoding: 101 101 4
Width: 394
VWidth: 0
Flags: HWO
LayerCount: 3
Fore
SplineSet
199 -10 m 0
 98 -10 28 86 28 178 c 0
 28 273 79 351 151 390 c 0
 173 402 199 408 225 408 c 0
 276 408 330 373 346 330 c 0
 357 302 359 268 361 236 c 1
 106 236 l 1
 106 236 105 228 105 213 c 0
 105 102 200 53 246 53 c 0
 291 53 325 87 343 102 c 1
 350 100 359 90 360 85 c 1
 342 54 280 -10 199 -10 c 0
108 253 m 1
 138 255 213 261 241 263 c 0
 262 265 282 275 282 293 c 0
 282 329 264 352 242 366 c 0
 231 373 221 376 211 376 c 0
 204 376 198 375 189 373 c 0
 149 362 122 326 108 253 c 1
EndSplineSet
EndChar

StartChar: f
Encoding: 102 102 5
Width: 282
VWidth: 0
Flags: HW
LayerCount: 3
Fore
SplineSet
91 254 m 0
 91 282 113 304 141 304 c 0
 169 304 191 282 191 254 c 0
 191 226 169 204 141 204 c 0
 113 204 91 226 91 254 c 0
EndSplineSet
EndChar

StartChar: g
Encoding: 103 103 6
Width: 282
VWidth: 0
Flags: HW
LayerCount: 3
Fore
SplineSet
91 254 m 0
 91 282 113 304 141 304 c 0
 169 304 191 282 191 254 c 0
 191 226 169 204 141 204 c 0
 113 204 91 226 91 254 c 0
EndSplineSet
EndChar

StartChar: h
Encoding: 104 104 7
Width: 282
VWidth: 0
Flags: HW
LayerCount: 3
Fore
SplineSet
91 254 m 0
 91 282 113 304 141 304 c 0
 169 304 191 282 191 254 c 0
 191 226 169 204 141 204 c 0
 113 204 91 226 91 254 c 0
EndSplineSet
EndChar

StartChar: i
Encoding: 105 105 8
Width: 282
VWidth: 0
Flags: HW
LayerCount: 3
Fore
SplineSet
91 254 m 0
 91 282 113 304 141 304 c 0
 169 304 191 282 191 254 c 0
 191 226 169 204 141 204 c 0
 113 204 91 226 91 254 c 0
EndSplineSet
EndChar

StartChar: j
Encoding: 106 106 9
Width: 282
VWidth: 0
Flags: HW
LayerCount: 3
Fore
SplineSet
91 254 m 0
 91 282 113 304 141 304 c 0
 169 304 191 282 191 254 c 0
 191 226 169 204 141 204 c 0
 113 204 91 226 91 254 c 0
EndSplineSet
EndChar

StartChar: k
Encoding: 107 107 10
Width: 282
VWidth: 0
Flags: HW
LayerCount: 3
Fore
SplineSet
91 254 m 0
 91 282 113 304 141 304 c 0
 169 304 191 282 191 254 c 0
 191 226 169 204 141 204 c 0
 113 204 91 226 91 254 c 0
EndSplineSet
EndChar

StartChar: l
Encoding: 108 108 11
Width: 282
VWidth: 0
Flags: HW
LayerCount: 3
Fore
SplineSet
91 254 m 0
 91 282 113 304 141 304 c 0
 169 304 191 282 191 254 c 0
 191 226 169 204 141 204 c 0
 113 204 91 226 91 254 c 0
EndSplineSet
EndChar

StartChar: m
Encoding: 109 109 12
Width: 282
VWidth: 0
Flags: HW
LayerCount: 3
Fore
SplineSet
91 254 m 0
 91 282 113 304 141 304 c 0
 169 304 191 282 191 254 c 0
 191 226 169 204 141 204 c 0
 113 204 91 226 91 254 c 0
EndSplineSet
EndChar

StartChar: n
Encoding: 110 110 13
Width: 282
VWidth: 0
Flags: HW
LayerCount: 3
Fore
SplineSet
91 254 m 0
 91 282 113 304 141 304 c 0
 169 304 191 282 191 254 c 0
 191 226 169 204 141 204 c 0
 113 204 91 226 91 254 c 0
EndSplineSet
EndChar

StartChar: o
Encoding: 111 111 14
Width: 282
VWidth: 0
Flags: HW
LayerCount: 3
Fore
SplineSet
91 254 m 0
 91 282 113 304 141 304 c 0
 169 304 191 282 191 254 c 0
 191 226 169 204 141 204 c 0
 113 204 91 226 91 254 c 0
EndSplineSet
EndChar

StartChar: p
Encoding: 112 112 15
Width: 282
VWidth: 0
Flags: HW
LayerCount: 3
Fore
SplineSet
91 254 m 0
 91 282 113 304 141 304 c 0
 169 304 191 282 191 254 c 0
 191 226 169 204 141 204 c 0
 113 204 91 226 91 254 c 0
EndSplineSet
EndChar

StartChar: q
Encoding: 113 113 16
Width: 282
VWidth: 0
Flags: HW
LayerCount: 3
Fore
SplineSet
91 254 m 0
 91 282 113 304 141 304 c 0
 169 304 191 282 191 254 c 0
 191 226 169 204 141 204 c 0
 113 204 91 226 91 254 c 0
EndSplineSet
EndChar

StartChar: r
Encoding: 114 114 17
Width: 282
VWidth: 0
Flags: HW
LayerCount: 3
Fore
SplineSet
91 254 m 0
 91 282 113 304 141 304 c 0
 169 304 191 282 191 254 c 0
 191 226 169 204 141 204 c 0
 113 204 91 226 91 254 c 0
EndSplineSet
EndChar

StartChar: s
Encoding: 115 115 18
Width: 282
VWidth: 0
Flags: HW
LayerCount: 3
Fore
SplineSet
91 254 m 0
 91 282 113 304 141 304 c 0
 169 304 191 282 191 254 c 0
 191 226 169 204 141 204 c 0
 113 204 91 226 91 254 c 0
EndSplineSet
EndChar

StartChar: t
Encoding: 116 116 19
Width: 282
VWidth: 0
Flags: HW
LayerCount: 3
Fore
SplineSet
91 254 m 0
 91 282 113 304 141 304 c 0
 169 304 191 282 191 254 c 0
 191 226 169 204 141 204 c 0
 113 204 91 226 91 254 c 0
EndSplineSet
EndChar

StartChar: u
Encoding: 117 117 20
Width: 282
VWidth: 0
Flags: HW
LayerCount: 3
Fore
SplineSet
91 254 m 0
 91 282 113 304 141 304 c 0
 169 304 191 282 191 254 c 0
 191 226 169 204 141 204 c 0
 113 204 91 226 91 254 c 0
EndSplineSet
EndChar

StartChar: v
Encoding: 118 118 21
Width: 282
VWidth: 0
Flags: HW
LayerCount: 3
Fore
SplineSet
91 254 m 0
 91 282 113 304 141 304 c 0
 169 304 191 282 191 254 c 0
 191 226 169 204 141 204 c 0
 113 204 91 226 91 254 c 0
EndSplineSet
EndChar

StartChar: w
Encoding: 119 119 22
Width: 282
VWidth: 0
Flags: HW
LayerCount: 3
Fore
SplineSet
91 254 m 0
 91 282 113 304 141 304 c 0
 169 304 191 282 191 254 c 0
 191 226 169 204 141 204 c 0
 113 204 91 226 91 254 c 0
EndSplineSet
EndChar

StartChar: x
Encoding: 120 120 23
Width: 282
VWidth: 0
Flags: HW
LayerCount: 3
Fore
SplineSet
91 254 m 0
 91 282 113 304 141 304 c 0
 169 304 191 282 191 254 c 0
 191 226 169 204 141 204 c 0
 113 204 91 226 91 254 c 0
EndSplineSet
EndChar

StartChar: y
Encoding: 121 121 24
Width: 282
VWidth: 0
Flags: HW
LayerCount: 3
Fore
SplineSet
91 254 m 0
 91 282 113 304 141 304 c 0
 169 304 191 282 191 254 c 0
 191 226 169 204 141 204 c 0
 113 204 91 226 91 254 c 0
EndSplineSet
EndChar

StartChar: z
Encoding: 122 122 25
Width: 282
VWidth: 0
Flags: HW
LayerCount: 3
Fore
SplineSet
91 254 m 0
 91 282 113 304 141 304 c 0
 169 304 191 282 191 254 c 0
 191 226 169 204 141 204 c 0
 113 204 91 226 91 254 c 0
EndSplineSet
EndChar

StartChar: zero
Encoding: 48 48 52
Width: 282
VWidth: 0
Flags: HW
LayerCount: 3
Fore
SplineSet
91 254 m 0
 91 282 113 304 141 304 c 0
 169 304 191 282 191 254 c 0
 191 226 169 204 141 204 c 0
 113 204 91 226 91 254 c 0
EndSplineSet
EndChar

StartChar: one
Encoding: 49 49 53
Width: 282
VWidth: 0
Flags: HW
LayerCount: 3
Fore
SplineSet
91 254 m 0
 91 282 113 304 141 304 c 0
 169 304 191 282 191 254 c 0
 191 226 169 204 141 204 c 0
 113 204 91 226 91 254 c 0
EndSplineSet
EndChar

StartChar: two
Encoding: 50 50 54
Width: 282
VWidth: 0
Flags: HW
LayerCount: 3
Fore
SplineSet
91 254 m 0
 91 282 113 304 141 304 c 0
 169 304 191 282 191 254 c 0
 191 226 169 204 141 204 c 0
 113 204 91 226 91 254 c 0
EndSplineSet
EndChar

StartChar: three
Encoding: 51 51 55
Width: 282
VWidth: 0
Flags: HW
LayerCount: 3
Fore
SplineSet
91 254 m 0
 91 282 113 304 141 304 c 0
 169 304 191 282 191 254 c 0
 191 226 169 204 141 204 c 0
 113 204 91 226 91 254 c 0
EndSplineSet
EndChar

StartChar: four
Encoding: 52 52 56
Width: 282
VWidth: 0
Flags: HW
LayerCount: 3
Fore
SplineSet
91 254 m 0
 91 282 113 304 141 304 c 0
 169 304 191 282 191 254 c 0
 191 226 169 204 141 204 c 0
 113 204 91 226 91 254 c 0
EndSplineSet
EndChar

StartChar: five
Encoding: 53 53 57
Width: 282
VWidth: 0
Flags: HW
LayerCount: 3
Fore
SplineSet
91 254 m 0
 91 282 113 304 141 304 c 0
 169 304 191 282 191 254 c 0
 191 226 169 204 141 204 c 0
 113 204 91 226 91 254 c 0
EndSplineSet
EndChar

StartChar: six
Encoding: 54 54 58
Width: 282
VWidth: 0
Flags: HW
LayerCount: 3
Fore
SplineSet
91 254 m 0
 91 282 113 304 141 304 c 0
 169 304 191 282 191 254 c 0
 191 226 169 204 141 204 c 0
 113 204 91 226 91 254 c 0
EndSplineSet
EndChar

StartChar: seven
Encoding: 55 55 59
Width: 282
VWidth: 0
Flags: HW
LayerCount: 3
Fore
SplineSet
91 254 m 0
 91 282 113 304 141 304 c 0
 169 304 191 282 191 254 c 0
 191 226 169 204 141 204 c 0
 113 204 91 226 91 254 c 0
EndSplineSet
EndChar

StartChar: eight
Encoding: 56 56 60
Width: 282
VWidth: 0
Flags: HW
LayerCount: 3
Fore
SplineSet
91 254 m 0
 91 282 113 304 141 304 c 0
 169 304 191 282 191 254 c 0
 191 226 169 204 141 204 c 0
 113 204 91 226 91 254 c 0
EndSplineSet
EndChar

StartChar: nine
Encoding: 57 57 61
Width: 282
VWidth: 0
Flags: HW
LayerCount: 3
Fore
SplineSet
91 254 m 0
 91 282 113 304 141 304 c 0
 169 304 191 282 191 254 c 0
 191 226 169 204 141 204 c 0
 113 204 91 226 91 254 c 0
EndSplineSet
EndChar

